<?xml version="1.0" encoding="utf-8"?>
<!-- Generator: Adobe Illustrator 17.1.0, SVG Export Plug-In . SVG Version: 6.00 Build 0)  -->
<!DOCTYPE svg PUBLIC "-//W3C//DTD SVG 1.1//EN" "http://www.w3.org/Graphics/SVG/1.1/DTD/svg11.dtd">
<svg version="1.1" id="Layer_1" xmlns="http://www.w3.org/2000/svg" xmlns:xlink="http://www.w3.org/1999/xlink" x="0px" y="0px"
	 viewBox="0 0 100 100" enable-background="new 0 0 100 100" xml:space="preserve">
<path fill="#FFFFFF" d="M100,88c0,6.6-5.4,12-12,12H12c-6.6,0-12-5.4-12-12V12C0,5.4,5.4,0,12,0h76c6.6,0,12,5.4,12,12V88z"/>
<g>
	<defs>
		<path id="SVGID_1_" d="M100,88c0,6.6-5.4,12-12,12H12c-6.6,0-12-5.4-12-12V12C0,5.4,5.4,0,12,0h76c6.6,0,12,5.4,12,12V88z"/>
	</defs>
	<clipPath id="SVGID_2_">
		<use xlink:href="#SVGID_1_"  overflow="visible"/>
	</clipPath>
</g>
<line fill="none" stroke="#020202" stroke-width="3" stroke-miterlimit="10" x1="230.2" y1="23" x2="230.2" y2="23"/>
<path fill="#CE365A" d="M69,88c0,6.6-2.1,12-4.6,12H35.6c-2.5,0-4.6-5.4-4.6-12V12c0-6.6,2.1-12,4.6-12h28.9C66.9,0,69,5.4,69,12V88
	z"/>
</svg>
