<?xml version="1.0" encoding="utf-8"?>
<!-- Generator: Adobe Illustrator 17.1.0, SVG Export Plug-In . SVG Version: 6.00 Build 0)  -->
<!DOCTYPE svg PUBLIC "-//W3C//DTD SVG 1.1//EN" "http://www.w3.org/Graphics/SVG/1.1/DTD/svg11.dtd">
<svg version="1.1" id="Layer_1" xmlns="http://www.w3.org/2000/svg" xmlns:xlink="http://www.w3.org/1999/xlink" x="0px" y="0px"
	 viewBox="0 0 100 100" enable-background="new 0 0 100 100" xml:space="preserve">
<path fill="#E89C2D" d="M100,88c0,6.6-5.4,12-12,12H12c-6.6,0-12-5.4-12-12V12C0,5.4,5.4,0,12,0h76c6.6,0,12,5.4,12,12V88z"/>
<path fill="none" stroke="#161616" stroke-width="10" stroke-miterlimit="10" d="M10.4,89.5"/>
<path fill="none" stroke="#161616" stroke-width="10" stroke-miterlimit="10" d="M40.8,59.1"/>
<g>
	<path d="M31.4,87.3V13.5h15.2c2.7,0,5.1,0.1,7.2,0.4c2.1,0.3,4.1,0.8,6.2,1.7c2,0.8,3.7,1.9,5,3.3c1.3,1.4,2.3,3.2,3.1,5.5
		c0.8,2.3,1.2,5,1.2,8.1c0,3.9-0.9,6.9-2.7,9.1c-1.8,2.2-4.6,4-8.5,5.3c8.8,2.1,13.2,8.3,13.2,18.6c0,7.4-1.8,12.9-5.3,16.5
		c-3.6,3.6-9,5.3-16.3,5.3H31.4z M46.2,42.5h2.5c1.4,0,2.5-0.3,3.4-0.8c0.9-0.5,1.6-1.3,2.1-2.3c0.5-1,0.8-2.1,1-3.2
		s0.3-2.5,0.3-4.1c0-1.2-0.1-2.3-0.3-3.2c-0.2-0.9-0.4-1.7-0.6-2.3c-0.2-0.6-0.6-1.1-1.1-1.6c-0.5-0.4-1-0.7-1.4-0.9
		c-0.4-0.2-1-0.4-1.8-0.5c-0.8-0.1-1.5-0.1-1.9-0.2c-0.5,0-1.3,0-2.3,0V42.5z M46.3,76.8h1.4c1.9,0,3.5-0.2,4.7-0.7s2.1-1.2,2.8-2.3
		c0.6-1.1,1-2.3,1.3-3.7c0.2-1.4,0.3-3.2,0.3-5.6c0-3.9-0.7-6.9-2-9s-3.7-3.2-6.9-3.2h-1.5V76.8z"/>
</g>
</svg>
