<?xml version="1.0" encoding="utf-8"?>
<!-- Generator: Adobe Illustrator 17.1.0, SVG Export Plug-In . SVG Version: 6.00 Build 0)  -->
<!DOCTYPE svg PUBLIC "-//W3C//DTD SVG 1.1//EN" "http://www.w3.org/Graphics/SVG/1.1/DTD/svg11.dtd">
<svg version="1.1" id="Layer_1" xmlns="http://www.w3.org/2000/svg" xmlns:xlink="http://www.w3.org/1999/xlink" x="0px" y="0px"
	 viewBox="0 0 100 100" enable-background="new 0 0 100 100" xml:space="preserve">
<path fill="#E89C2D" d="M100,88c0,6.6-5.4,12-12,12H12c-6.6,0-12-5.4-12-12V12C0,5.4,5.4,0,12,0h76c6.6,0,12,5.4,12,12V88z"/>
<path fill="none" stroke="#161616" stroke-width="10" stroke-miterlimit="10" d="M10.4,89.5"/>
<path fill="none" stroke="#161616" stroke-width="10" stroke-miterlimit="10" d="M40.8,59.1"/>
<g>
	<path d="M29.4,62.7V38.2c0-17.5,7.1-26.2,21.4-26.2c3,0,5.7,0.4,8,1.2c2.3,0.8,4.3,1.9,5.9,3.3c1.6,1.4,2.9,3.2,3.9,5.3
		c1,2.1,1.8,4.3,2.2,6.8c0.5,2.4,0.7,5.1,0.7,8V43H56.9v-6.8c0-1.3,0-2.5-0.1-3.5c-0.1-1-0.2-2.1-0.4-3.3c-0.2-1.2-0.5-2.3-0.9-3
		c-0.4-0.8-1-1.4-1.8-2c-0.8-0.5-1.7-0.8-2.8-0.8c-4.3,0-6.5,3.6-6.5,10.9v31.9c0,7.2,2.2,10.9,6.5,10.9c1.3,0,2.4-0.4,3.2-1.1
		c0.9-0.7,1.5-1.8,1.9-3.1c0.4-1.4,0.6-2.7,0.8-4c0.1-1.3,0.2-2.8,0.2-4.5v-7.6h14.6v6.2c-0.1,2.8-0.3,5.4-0.7,7.8
		c-0.4,2.4-1.1,4.7-2.1,6.9s-2.2,4.1-3.8,5.7c-1.5,1.5-3.5,2.8-5.9,3.7c-2.4,0.9-5.2,1.4-8.3,1.4c-3.2,0-6-0.5-8.5-1.4
		c-2.5-0.9-4.5-2.1-6.1-3.7c-1.6-1.5-2.9-3.4-4-5.7c-1-2.3-1.8-4.6-2.2-7.1C29.7,68.4,29.4,65.6,29.4,62.7z"/>
</g>
</svg>
