<?xml version="1.0" encoding="utf-8"?>
<!-- Generator: Adobe Illustrator 17.1.0, SVG Export Plug-In . SVG Version: 6.00 Build 0)  -->
<!DOCTYPE svg PUBLIC "-//W3C//DTD SVG 1.1//EN" "http://www.w3.org/Graphics/SVG/1.1/DTD/svg11.dtd">
<svg version="1.1" id="Layer_1" xmlns="http://www.w3.org/2000/svg" xmlns:xlink="http://www.w3.org/1999/xlink" x="0px" y="0px"
	 viewBox="0 0 100 100" enable-background="new 0 0 100 100" xml:space="preserve">
<path fill="#8653AD" d="M100,88c0,6.6-5.4,12-12,12H12c-6.6,0-12-5.4-12-12V12C0,5.4,5.4,0,12,0h76c6.6,0,12,5.4,12,12V88z"/>
<path fill="none" stroke="#161616" stroke-width="10" stroke-miterlimit="10" d="M10.4,89.5"/>
<path fill="none" stroke="#161616" stroke-width="10" stroke-miterlimit="10" d="M40.8,59.1"/>
<path fill="none" stroke="#FFFFFF" stroke-width="5" stroke-miterlimit="10" d="M82.5,26.9c-6.8-6.8-17.8-6.8-24.5,0l-7.5,7.5
	L43,26.9c-6.8-6.8-17.8-6.8-24.5,0c-6.8,6.8-6.8,17.8,0,24.5l32,32l32-32C89.3,44.7,89.3,33.7,82.5,26.9z"/>
</svg>
