<?xml version="1.0" encoding="utf-8"?>
<!-- Generator: Adobe Illustrator 17.1.0, SVG Export Plug-In . SVG Version: 6.00 Build 0)  -->
<!DOCTYPE svg PUBLIC "-//W3C//DTD SVG 1.1//EN" "http://www.w3.org/Graphics/SVG/1.1/DTD/svg11.dtd">
<svg version="1.1" id="Layer_1" xmlns="http://www.w3.org/2000/svg" xmlns:xlink="http://www.w3.org/1999/xlink" x="0px" y="0px"
	 viewBox="0 0 100 100" enable-background="new 0 0 100 100" xml:space="preserve">
<path fill="#8653AD" d="M100,88c0,6.6-5.4,12-12,12H12c-6.6,0-12-5.4-12-12V12C0,5.4,5.4,0,12,0h76c6.6,0,12,5.4,12,12V88z"/>
<path fill="none" stroke="#161616" stroke-width="10" stroke-miterlimit="10" d="M5.6,93"/>
<path fill="none" stroke="#161616" stroke-width="10" stroke-miterlimit="10" d="M38.7,59.8"/>
<path fill="none" stroke="#FFFFFF" stroke-width="5" stroke-miterlimit="10" d="M34.1,61.2V21.7c0-2.7,2.2-4.9,4.9-4.9l0,0
	c2.7,0,4.9,2.2,4.9,4.9V52"/>
<path fill="none" stroke="#FFFFFF" stroke-width="5" stroke-miterlimit="10" d="M44.1,52V14c0-2.7,2.2-4.9,4.9-4.9l0,0
	c2.7,0,4.9,2.2,4.9,4.9v39.5"/>
<path fill="none" stroke="#FFFFFF" stroke-width="5" stroke-miterlimit="10" d="M53.9,53.5V18.6c0-2.7,2.2-4.9,4.9-4.9l0,0
	c2.7,0,4.9,2.2,4.9,4.9v35.7"/>
<path fill="none" stroke="#FFFFFF" stroke-width="5" stroke-miterlimit="10" d="M63.7,54.3v-28c0-2.7,2.2-4.9,4.9-4.9l0,0
	c2.7,0,4.9,2.2,4.9,4.9v41.1c0,11.5-9.3,20.8-20.8,20.8H45c-11.5,0-20.8-9.3-20.8-20.8V43.3c0-2.7,2.2-4.9,4.9-4.9l0,0
	c2.7,0,4.9,2.2,4.9,4.9v14.1l0,3.9H38c3.9,0,7,3.1,7,7l0,0"/>
</svg>
