<?xml version="1.0" encoding="utf-8"?>
<!-- Generator: Adobe Illustrator 17.1.0, SVG Export Plug-In . SVG Version: 6.00 Build 0)  -->
<!DOCTYPE svg PUBLIC "-//W3C//DTD SVG 1.1//EN" "http://www.w3.org/Graphics/SVG/1.1/DTD/svg11.dtd">
<svg version="1.1" id="Layer_1" xmlns="http://www.w3.org/2000/svg" xmlns:xlink="http://www.w3.org/1999/xlink" x="0px" y="0px"
	 viewBox="0 0 100 100" enable-background="new 0 0 100 100" xml:space="preserve">
<path fill="#8653AD" d="M100,88c0,6.6-5.4,12-12,12H12c-6.6,0-12-5.4-12-12V12C0,5.4,5.4,0,12,0h76c6.6,0,12,5.4,12,12V88z"/>
<path fill="none" stroke="#FFFFFF" stroke-width="5" stroke-linejoin="round" stroke-miterlimit="10" d="M10.8,44.4
	C21.4,44.4,24.4,26,37.4,26c6.4,0,9.5,7.2,13.8,7.2c4,0,7.7-7.1,13.1-7.1c12.2,0,15.6,18.4,26.3,18.4c-5.1,0-8.1,32.6-39.3,32.6
	S16,44.4,10.8,44.4z"/>
<path fill="none" stroke="#FFFFFF" stroke-width="5" stroke-linejoin="round" stroke-miterlimit="10" d="M13.3,45.9
	c0,0,12.3,15.2,37.9,15.2s35.7-15.2,35.7-15.2s-20.7-2-35.9-2.2C35.7,43.4,13.3,45.9,13.3,45.9z"/>
</svg>
