<?xml version="1.0" encoding="utf-8"?>
<!-- Generator: Adobe Illustrator 17.1.0, SVG Export Plug-In . SVG Version: 6.00 Build 0)  -->
<!DOCTYPE svg PUBLIC "-//W3C//DTD SVG 1.1//EN" "http://www.w3.org/Graphics/SVG/1.1/DTD/svg11.dtd">
<svg version="1.1" id="Layer_1" xmlns="http://www.w3.org/2000/svg" xmlns:xlink="http://www.w3.org/1999/xlink" x="0px" y="0px"
	 viewBox="0 0 100 100" enable-background="new 0 0 100 100" xml:space="preserve">
<path fill="#8653AD" d="M100,88c0,6.6-5.4,12-12,12H12c-6.6,0-12-5.4-12-12V12C0,5.4,5.4,0,12,0h76c6.6,0,12,5.4,12,12V88z"/>
<g id="Layer_5_1_">
	<path fill="none" stroke="#FFFFFF" stroke-width="5" stroke-linejoin="round" stroke-miterlimit="10" d="M71.4,30
		c-5-12.7-19.4-19-32.2-14c-12.7,5-19.8,19.8-14,32.2c7,15,19,11.3,24.1,28c1.9,6.3,5.3,11.9,11.9,11.9s11.9-5.3,11.9-11.9"/>
	<path fill="none" stroke="#FFFFFF" stroke-width="5" stroke-linejoin="round" stroke-miterlimit="10" d="M43.7,46.9
		c-0.3-5.7,4.1-10.7,9.8-11c5.7-0.3,11.3,4.3,11,9.8c-0.7,12.4,3.9,19,3.9,19c1.3,3.6-0.5,7.6-4.1,8.9c-3.6,1.3-7.6-0.5-8.9-4.1"/>
</g>
</svg>
