<?xml version="1.0" encoding="utf-8"?>
<!-- Generator: Adobe Illustrator 17.1.0, SVG Export Plug-In . SVG Version: 6.00 Build 0)  -->
<!DOCTYPE svg PUBLIC "-//W3C//DTD SVG 1.1//EN" "http://www.w3.org/Graphics/SVG/1.1/DTD/svg11.dtd">
<svg version="1.1" id="Layer_1" xmlns="http://www.w3.org/2000/svg" xmlns:xlink="http://www.w3.org/1999/xlink" x="0px" y="0px"
	 viewBox="0 0 100 100" enable-background="new 0 0 100 100" xml:space="preserve">
<path fill="#CE365A" d="M100,88c0,6.6-5.4,12-12,12H12c-6.6,0-12-5.4-12-12V12C0,5.4,5.4,0,12,0h76c6.6,0,12,5.4,12,12V88z"/>
<g>
	<g>
		<line fill="none" stroke="#020202" stroke-width="3" stroke-miterlimit="10" x1="68.2" y1="31.8" x2="82.5" y2="17.5"/>
		<g>
			<polygon fill="#020202" points="90,10 83.8,24.9 82,18 75.1,16.2 			"/>
		</g>
	</g>
</g>
<g>
	<g>
		<line fill="none" stroke="#020202" stroke-width="3" stroke-miterlimit="10" x1="31.8" y1="31.8" x2="17.5" y2="17.5"/>
		<g>
			<polygon fill="#020202" points="10,10 24.9,16.2 18,18 16.2,24.9 			"/>
		</g>
	</g>
</g>
<g>
	<g>
		<line fill="none" stroke="#020202" stroke-width="3" stroke-miterlimit="10" x1="31.8" y1="68.2" x2="17.5" y2="82.5"/>
		<g>
			<polygon fill="#020202" points="10,90 16.2,75.1 18,82 24.9,83.8 			"/>
		</g>
	</g>
</g>
<g>
	<g>
		<line fill="none" stroke="#020202" stroke-width="3" stroke-miterlimit="10" x1="68.2" y1="68.2" x2="82.5" y2="82.5"/>
		<g>
			<polygon fill="#020202" points="90,90 75.1,83.8 82,82 83.8,75.1 			"/>
		</g>
	</g>
</g>
<line fill="none" stroke="#020202" stroke-width="3" stroke-miterlimit="10" x1="230.2" y1="23" x2="230.2" y2="23"/>
</svg>
