<?xml version="1.0" encoding="utf-8"?>
<!-- Generator: Adobe Illustrator 17.1.0, SVG Export Plug-In . SVG Version: 6.00 Build 0)  -->
<!DOCTYPE svg PUBLIC "-//W3C//DTD SVG 1.1//EN" "http://www.w3.org/Graphics/SVG/1.1/DTD/svg11.dtd">
<svg version="1.1" id="Layer_1" xmlns="http://www.w3.org/2000/svg" xmlns:xlink="http://www.w3.org/1999/xlink" x="0px" y="0px"
	 viewBox="0 0 100 100" enable-background="new 0 0 100 100" xml:space="preserve">
<path fill="#CE365A" d="M100,88c0,6.6-5.4,12-12,12H12c-6.6,0-12-5.4-12-12V12C0,5.4,5.4,0,12,0h76c6.6,0,12,5.4,12,12V88z"/>
<g>
	<g>
		<line fill="none" stroke="#020202" stroke-width="3" stroke-miterlimit="10" x1="58.2" y1="41.8" x2="72.5" y2="27.5"/>
		<g>
			<polygon fill="#020202" points="80,20 73.8,34.9 72,28 65.1,26.2 			"/>
		</g>
	</g>
</g>
<g>
	<g>
		<line fill="none" stroke="#020202" stroke-width="3" stroke-miterlimit="10" x1="41.8" y1="41.8" x2="27.5" y2="27.5"/>
		<g>
			<polygon fill="#020202" points="20,20 34.9,26.2 28,28 26.2,34.9 			"/>
		</g>
	</g>
</g>
<g>
	<g>
		<line fill="none" stroke="#020202" stroke-width="3" stroke-miterlimit="10" x1="41.8" y1="58.2" x2="27.5" y2="72.5"/>
		<g>
			<polygon fill="#020202" points="20,80 26.2,65.1 28,72 34.9,73.8 			"/>
		</g>
	</g>
</g>
<g>
	<g>
		<line fill="none" stroke="#020202" stroke-width="3" stroke-miterlimit="10" x1="58.2" y1="58.2" x2="72.5" y2="72.5"/>
		<g>
			<polygon fill="#020202" points="80,80 65.1,73.8 72,72 73.8,65.1 			"/>
		</g>
	</g>
</g>
<line fill="none" stroke="#020202" stroke-width="3" stroke-miterlimit="10" x1="230.2" y1="23" x2="230.2" y2="23"/>
</svg>
