<?xml version="1.0" encoding="utf-8"?>
<!-- Generator: Adobe Illustrator 16.0.4, SVG Export Plug-In . SVG Version: 6.00 Build 0)  -->
<!DOCTYPE svg PUBLIC "-//W3C//DTD SVG 1.1//EN" "http://www.w3.org/Graphics/SVG/1.1/DTD/svg11.dtd">
<svg version="1.1" xmlns="http://www.w3.org/2000/svg" xmlns:xlink="http://www.w3.org/1999/xlink" x="0px" y="0px"
	 width="365.671px" height="365.67px" viewBox="0 0 365.671 365.67" enable-background="new 0 0 365.671 365.67"
	 xml:space="preserve">
<g id="Layer_1">
</g>
<g id="Layer_5">
	<path fill="none" stroke="#FFFFFF" stroke-width="20" stroke-linejoin="round" stroke-miterlimit="10" d="M267.395,91.288
		C245.811,36.572,183.956,9.712,129.24,31.296c-54.716,21.585-84.9,84.87-59.992,138.155
		c30.039,64.264,81.508,48.579,103.54,120.111c8.295,26.929,22.843,51.02,51.019,51.02s51.018-22.844,51.018-51.02"/>
	<path fill="none" stroke="#FFFFFF" stroke-width="20" stroke-linejoin="round" stroke-miterlimit="10" d="M148.528,163.583
		c-1.42-24.626,17.392-45.741,42.017-47.162c24.627-1.421,48.421,18.255,47.164,42.017c-2.819,53.195,16.698,81.482,16.698,81.482
		c5.607,15.431-2.358,32.484-17.788,38.091s-32.484-2.357-38.092-17.786"/>
</g>
</svg>
