<?xml version="1.0" encoding="utf-8"?>
<!-- Generator: Adobe Illustrator 16.0.4, SVG Export Plug-In . SVG Version: 6.00 Build 0)  -->
<!DOCTYPE svg PUBLIC "-//W3C//DTD SVG 1.1//EN" "http://www.w3.org/Graphics/SVG/1.1/DTD/svg11.dtd">
<svg version="1.1" xmlns="http://www.w3.org/2000/svg" xmlns:xlink="http://www.w3.org/1999/xlink" x="0px" y="0px" width="31px"
	 height="31px" viewBox="405.445 282.14 31 31" enable-background="new 405.445 282.14 31 31" xml:space="preserve">
<g id="Layer_1">
	<g id="Layer_1_1_">
	</g>
</g>
<g id="Blue">
	<g>
		<path fill="#FFFFFF" d="M431.163,286.153h-20.438c-0.7,0-1.268,0.568-1.268,1.269v20.438c0,0.702,0.567,1.269,1.268,1.269h11.005
			v-8.896h-2.995v-3.468h2.995v-2.557c0-2.967,1.812-4.583,4.459-4.583c1.269,0,2.358,0.094,2.676,0.136v3.102l-1.837,0
			c-1.438,0-1.717,0.685-1.717,1.688v2.213h3.432l-0.447,3.468h-2.984v8.896h5.853c0.701,0,1.269-0.566,1.269-1.269v-20.438
			C432.432,286.721,431.865,286.153,431.163,286.153z"/>
	</g>
</g>
</svg>
