<?xml version="1.0" encoding="utf-8"?>
<!-- Generator: Adobe Illustrator 16.0.4, SVG Export Plug-In . SVG Version: 6.00 Build 0)  -->
<!DOCTYPE svg PUBLIC "-//W3C//DTD SVG 1.1//EN" "http://www.w3.org/Graphics/SVG/1.1/DTD/svg11.dtd">
<svg version="1.1" id="Layer_1" xmlns="http://www.w3.org/2000/svg" xmlns:xlink="http://www.w3.org/1999/xlink" x="0px" y="0px"
	 width="365.671px" height="365.67px" viewBox="0 0 365.671 365.67" enable-background="new 0 0 365.671 365.67"
	 xml:space="preserve">
<g id="Layer_1_1_">
</g>
<g id="Layer_5">
	<g>
		<path fill="none" stroke="#FFFFFF" stroke-width="20" stroke-linejoin="round" stroke-miterlimit="10" d="M14.091,255.552
			L233.966,35.677c26.236-26.236,68.771-26.236,95.007,0l0,0c26.237,26.236,26.237,68.772,0,95.008L109.098,349.6"/>
		<path fill="none" stroke="#FFFFFF" stroke-width="20" stroke-linejoin="round" stroke-miterlimit="10" d="M195.662,226.572
			c0-31.826-25.755-57.582-57.582-57.582"/>
		<path fill="none" stroke="#FFFFFF" stroke-width="20" stroke-linejoin="round" stroke-miterlimit="10" d="M166.388,255.845
			c-0.001-31.826-25.755-57.581-57.581-57.581"/>
		<path fill="none" stroke="#FFFFFF" stroke-width="20" stroke-linejoin="round" stroke-miterlimit="10" d="M275.599,138.242
			l30.854-30.855c13.585-13.583,13.585-35.607,0-49.19l0,0c-13.584-13.584-35.607-13.584-49.191,0l-30.854,30.854L275.599,138.242z"
			/>
	</g>
</g>
</svg>
