<?xml version="1.0" encoding="utf-8"?>
<!-- Generator: Adobe Illustrator 17.1.0, SVG Export Plug-In . SVG Version: 6.00 Build 0)  -->
<!DOCTYPE svg PUBLIC "-//W3C//DTD SVG 1.1//EN" "http://www.w3.org/Graphics/SVG/1.1/DTD/svg11.dtd">
<svg version="1.1" id="Layer_1" xmlns="http://www.w3.org/2000/svg" xmlns:xlink="http://www.w3.org/1999/xlink" x="0px" y="0px"
	 viewBox="0 0 365.7 365.7" enable-background="new 0 0 365.7 365.7" xml:space="preserve">
<g id="Layer_1_1_">
</g>
<path fill="none" stroke="#FFFFFF" stroke-width="20" stroke-linejoin="round" stroke-miterlimit="10" d="M30.1,248.6L228.9,49.8
	c23.7-23.7,62.2-23.7,85.9,0l0,0c23.7,23.7,23.7,62.2,0,85.9L116,333.6"/>
<path fill="none" stroke="#FFFFFF" stroke-width="20" stroke-linejoin="round" stroke-miterlimit="10" d="M194.3,222.4
	c0-28.8-23.3-52.1-52.1-52.1"/>
<path fill="none" stroke="#FFFFFF" stroke-width="20" stroke-linejoin="round" stroke-miterlimit="10" d="M167.8,248.8
	c0-28.8-23.3-52.1-52.1-52.1"/>
<path fill="none" stroke="#FFFFFF" stroke-width="20" stroke-linejoin="round" stroke-miterlimit="10" d="M266.2,138.5l25.2-25.2
	c11.1-11.1,11.1-29,0-40.1l0,0c-11.1-11.1-29-11.1-40.1,0l-25.2,25.2L266.2,138.5z"/>
</svg>
