<?xml version="1.0" encoding="utf-8"?>
<!-- Generator: Adobe Illustrator 16.0.4, SVG Export Plug-In . SVG Version: 6.00 Build 0)  -->
<!DOCTYPE svg PUBLIC "-//W3C//DTD SVG 1.1//EN" "http://www.w3.org/Graphics/SVG/1.1/DTD/svg11.dtd">
<svg version="1.1" id="Layer_1" xmlns="http://www.w3.org/2000/svg" xmlns:xlink="http://www.w3.org/1999/xlink" x="0px" y="0px"
	 width="365.671px" height="365.67px" viewBox="0 0 365.671 365.67" enable-background="new 0 0 365.671 365.67"
	 xml:space="preserve">
<g id="Layer_1_1_">
</g>
<g id="Layer_5">
	<g>
		<path fill="none" stroke="#FFFFFF" stroke-width="20" stroke-linejoin="round" stroke-miterlimit="10" d="M30.137,248.573
			L228.921,49.789c23.72-23.719,62.174-23.719,85.894,0l0,0c23.721,23.72,23.721,62.176,0,85.895L116.031,333.6"/>
		<path fill="none" stroke="#FFFFFF" stroke-width="20" stroke-linejoin="round" stroke-miterlimit="10" d="M194.291,222.372
			c0-28.771-23.284-52.058-52.058-52.058"/>
		<path fill="none" stroke="#FFFFFF" stroke-width="20" stroke-linejoin="round" stroke-miterlimit="10" d="M167.825,248.838
			c0-28.773-23.285-52.058-52.058-52.058"/>
		<path fill="none" stroke="#FFFFFF" stroke-width="20" stroke-linejoin="round" stroke-miterlimit="10" d="M266.56,142.516
			l27.895-27.896c12.282-12.28,12.282-32.192,0-44.472l0,0c-12.281-12.281-32.191-12.281-44.472,0l-27.896,27.895L266.56,142.516z"
			/>
	</g>
</g>
</svg>
