<?xml version="1.0" encoding="utf-8"?>
<!-- Generator: Adobe Illustrator 17.1.0, SVG Export Plug-In . SVG Version: 6.00 Build 0)  -->
<!DOCTYPE svg PUBLIC "-//W3C//DTD SVG 1.1//EN" "http://www.w3.org/Graphics/SVG/1.1/DTD/svg11.dtd">
<svg version="1.1" id="Layer_1" xmlns="http://www.w3.org/2000/svg" xmlns:xlink="http://www.w3.org/1999/xlink" x="0px" y="0px"
	 viewBox="-11 -2.7 122.4 103.6" enable-background="new -11 -2.7 122.4 103.6" xml:space="preserve">
<g id="Layer_1_1_">
</g>
<path fill="none" stroke="#FFFFFF" stroke-width="8" stroke-linejoin="round" stroke-miterlimit="10" d="M84.5,66.6
	c0,5.1-4.1,9.2-9.2,9.2H24.9c-5.1,0-9.2-4.1-9.2-9.2V32.9c0-5.1,4.1-9.2,9.2-9.2h50.5c5.1,0,9.2,4.1,9.2,9.2V66.6z"/>
<g>
	
		<polyline fill="none" stroke="#FFFFFF" stroke-width="8" stroke-linecap="round" stroke-linejoin="round" stroke-miterlimit="10" points="
		101.7,22.5 107.4,1.3 86.2,7 	"/>
	
		<line fill="none" stroke="#FFFFFF" stroke-width="8" stroke-linecap="round" stroke-linejoin="round" stroke-miterlimit="10" x1="107.4" y1="1.3" x2="70.5" y2="38.2"/>
</g>
<g>
	
		<polyline fill="none" stroke="#FFFFFF" stroke-width="8" stroke-linecap="round" stroke-linejoin="round" stroke-miterlimit="10" points="
		86.2,91.2 107.4,96.9 101.7,75.7 	"/>
	
		<line fill="none" stroke="#FFFFFF" stroke-width="8" stroke-linecap="round" stroke-linejoin="round" stroke-miterlimit="10" x1="107.4" y1="96.9" x2="70.5" y2="60"/>
</g>
<g>
	
		<polyline fill="none" stroke="#FFFFFF" stroke-width="8" stroke-linecap="round" stroke-linejoin="round" stroke-miterlimit="10" points="
		14.2,91.2 -7,96.9 -1.3,75.7 	"/>
	
		<line fill="none" stroke="#FFFFFF" stroke-width="8" stroke-linecap="round" stroke-linejoin="round" stroke-miterlimit="10" x1="-7" y1="96.9" x2="29.9" y2="60"/>
</g>
<g>
	
		<polyline fill="none" stroke="#FFFFFF" stroke-width="8" stroke-linecap="round" stroke-linejoin="round" stroke-miterlimit="10" points="
		14.2,7 -7,1.3 -1.3,22.5 	"/>
	
		<line fill="none" stroke="#FFFFFF" stroke-width="8" stroke-linecap="round" stroke-linejoin="round" stroke-miterlimit="10" x1="-7" y1="1.3" x2="29.9" y2="38.2"/>
</g>
</svg>
