<?xml version="1.0" encoding="utf-8"?>
<!-- Generator: Adobe Illustrator 16.0.4, SVG Export Plug-In . SVG Version: 6.00 Build 0)  -->
<!DOCTYPE svg PUBLIC "-//W3C//DTD SVG 1.1//EN" "http://www.w3.org/Graphics/SVG/1.1/DTD/svg11.dtd">
<svg version="1.1" id="Layer_1" xmlns="http://www.w3.org/2000/svg" xmlns:xlink="http://www.w3.org/1999/xlink" x="0px" y="0px"
	 width="31px" height="31px" viewBox="0 0 31 31" enable-background="new 0 0 31 31" xml:space="preserve">
<g id="Layer_1_1_">
</g>
<path fill-rule="evenodd" clip-rule="evenodd" fill="#FFFFFF" d="M15.608,2.058c-7.229,0-13.092,5.862-13.092,13.094
	c0,5.785,3.75,10.692,8.954,12.423c0.654,0.119,0.894-0.284,0.894-0.631c0-0.311-0.012-1.136-0.017-2.227
	c-3.643,0.79-4.411-1.756-4.411-1.756c-0.595-1.514-1.454-1.915-1.454-1.915c-1.188-0.812,0.09-0.796,0.09-0.796
	C7.886,20.344,8.578,21.6,8.578,21.6c1.168,2.001,3.064,1.424,3.811,1.088c0.119-0.846,0.457-1.422,0.831-1.75
	c-2.908-0.33-5.964-1.454-5.964-6.471c0-1.43,0.511-2.598,1.348-3.514C8.469,10.622,8.02,9.291,8.731,7.488
	c0,0,1.1-0.352,3.601,1.342c1.044-0.29,2.165-0.435,3.278-0.44c1.112,0.005,2.23,0.15,3.277,0.44c2.5-1.693,3.598-1.342,3.598-1.342
	c0.715,1.802,0.266,3.134,0.13,3.465c0.839,0.916,1.346,2.084,1.346,3.514c0,5.03-3.062,6.136-5.978,6.46
	c0.47,0.404,0.889,1.204,0.889,2.426c0,1.75-0.017,3.161-0.017,3.592c0,0.35,0.236,0.757,0.9,0.629
	c5.199-1.734,8.946-6.639,8.946-12.421C28.702,7.92,22.84,2.058,15.608,2.058z"/>
</svg>
