<?xml version="1.0" encoding="utf-8"?>
<!-- Generator: Adobe Illustrator 17.1.0, SVG Export Plug-In . SVG Version: 6.00 Build 0)  -->
<!DOCTYPE svg PUBLIC "-//W3C//DTD SVG 1.1//EN" "http://www.w3.org/Graphics/SVG/1.1/DTD/svg11.dtd">
<svg version="1.1" id="Layer_1" xmlns="http://www.w3.org/2000/svg" xmlns:xlink="http://www.w3.org/1999/xlink" x="0px" y="0px"
	 viewBox="0 0 100 100" enable-background="new 0 0 100 100" xml:space="preserve">
<g id="Layer_1_1_">
</g>
<path fill="none" stroke="#FFFFFF" stroke-width="5" stroke-miterlimit="10" d="M32.5,64.9V17.6c0-3.2,2.6-5.9,5.9-5.9l0,0
	c3.2,0,5.9,2.6,5.9,5.9v36.2"/>
<path fill="none" stroke="#FFFFFF" stroke-width="5" stroke-miterlimit="10" d="M44.4,53.8V8.4c0-3.2,2.6-5.9,5.9-5.9l0,0
	c3.2,0,5.9,2.6,5.9,5.9v47.2"/>
<path fill="none" stroke="#FFFFFF" stroke-width="5" stroke-miterlimit="10" d="M56.1,55.7V14c0-3.2,2.6-5.9,5.9-5.9l0,0
	c3.2,0,5.9,2.6,5.9,5.9v42.6"/>
<path fill="none" stroke="#FFFFFF" stroke-width="5" stroke-miterlimit="10" d="M67.9,56.6V23.2c0-3.2,2.6-5.9,5.9-5.9l0,0
	c3.2,0,5.9,2.6,5.9,5.9v49.1c0,13.7-11.1,24.9-24.9,24.9h-9.2c-13.7,0-24.9-11.1-24.9-24.9V43.4c0-3.2,2.6-5.9,5.9-5.9l0,0
	c3.2,0,5.9,2.6,5.9,5.9v16.8l0,4.6h4.7c4.6,0,8.4,3.7,8.4,8.4l0,0"/>
</svg>
