<?xml version="1.0" encoding="utf-8"?>
<!-- Generator: Adobe Illustrator 17.1.0, SVG Export Plug-In . SVG Version: 6.00 Build 0)  -->
<!DOCTYPE svg PUBLIC "-//W3C//DTD SVG 1.1//EN" "http://www.w3.org/Graphics/SVG/1.1/DTD/svg11.dtd">
<svg version="1.1" id="Layer_1" xmlns="http://www.w3.org/2000/svg" xmlns:xlink="http://www.w3.org/1999/xlink" x="0px" y="0px"
	 viewBox="0 0 100 100" enable-background="new 0 0 100 100" xml:space="preserve">
<g id="Layer_1_1_">
</g>
<g>
	<path fill="#FFFFFF" d="M50,8c23.2,0,42,18.8,42,42S73.2,92,50,92S8,73.2,8,50S26.8,8,50,8 M50,0C22.4,0,0,22.4,0,50s22.4,50,50,50
		s50-22.4,50-50S77.6,0,50,0L50,0z"/>
</g>
<path fill="#FFFFFF" d="M33.7,37.9c0-2.1,0.7-4.3,2-6.5s3.4-4,6-5.4c2.6-1.4,5.7-2.1,9.2-2.1c3.2,0,6.1,0.6,8.6,1.8
	c2.5,1.2,4.4,2.8,5.8,4.9c1.4,2.1,2,4.3,2,6.7c0,1.9-0.4,3.6-1.2,5S64.4,45,63.3,46c-1.1,1-3,2.8-5.7,5.3c-0.8,0.7-1.4,1.3-1.8,1.8
	c-0.5,0.5-0.8,1-1,1.4c-0.2,0.4-0.4,0.9-0.5,1.3c-0.1,0.4-0.3,1.2-0.6,2.3c-0.4,2.3-1.8,3.5-4,3.5c-1.2,0-2.1-0.4-2.9-1.1
	c-0.8-0.8-1.2-1.9-1.2-3.4c0-1.9,0.3-3.5,0.9-4.9c0.6-1.4,1.4-2.6,2.3-3.6c1-1,2.3-2.3,3.9-3.7c1.4-1.3,2.5-2.2,3.1-2.8
	c0.6-0.6,1.2-1.3,1.6-2.1c0.4-0.8,0.7-1.6,0.7-2.6c0-1.8-0.7-3.3-2-4.5c-1.3-1.2-3-1.8-5.2-1.8c-2.5,0-4.3,0.6-5.4,1.9
	c-1.2,1.2-2.1,3.1-3,5.5c-0.8,2.5-2.2,3.8-4.3,3.8c-1.3,0-2.3-0.4-3.2-1.3C34.1,39.9,33.7,39,33.7,37.9z M50,78.7
	c-1.4,0-2.6-0.4-3.6-1.3c-1-0.9-1.5-2.1-1.5-3.7c0-1.4,0.5-2.6,1.5-3.6c1-1,2.2-1.4,3.6-1.4c1.4,0,2.6,0.5,3.6,1.4
	c1,1,1.4,2.1,1.4,3.6c0,1.6-0.5,2.8-1.5,3.7C52.5,78.3,51.4,78.7,50,78.7z"/>
</svg>
