<?xml version="1.0" encoding="utf-8"?>
<!-- Generator: Adobe Illustrator 17.1.0, SVG Export Plug-In . SVG Version: 6.00 Build 0)  -->
<!DOCTYPE svg PUBLIC "-//W3C//DTD SVG 1.1//EN" "http://www.w3.org/Graphics/SVG/1.1/DTD/svg11.dtd">
<svg version="1.1" id="Layer_1" xmlns="http://www.w3.org/2000/svg" xmlns:xlink="http://www.w3.org/1999/xlink" x="0px" y="0px"
	 viewBox="0 0 365.7 365.7" enable-background="new 0 0 365.7 365.7" xml:space="preserve">
<path fill="none" stroke="#FFFFFF" stroke-width="20" stroke-linejoin="round" stroke-miterlimit="10" d="M295,262.3
	c0,15.5-12.6,28-28,28H101.2c-15.5,0-28-12.6-28-28V96.6c0-15.5,12.6-28,28-28h165.8c15.5,0,28,12.6,28,28L295,262.3L295,262.3z"/>
<g>
	<path fill="#FFFFFF" stroke="#FFFFFF" d="M211.7,220.6l-5.3-14.1h-45.5l-5.3,14.3c-2.1,5.6-3.9,9.4-5.3,11.3
		c-1.5,1.9-3.9,2.9-7.3,2.9c-2.9,0-5.3-1-7.5-3.1c-2.2-2.1-3.3-4.4-3.3-7.1c0-1.6,0.3-3.1,0.8-4.7c0.5-1.6,1.4-3.9,2.5-6.8
		l28.6-72.7c0.8-2.1,1.9-4.6,2.9-7.5s2.4-5.3,3.7-7.3s3-3.5,5.2-4.7c2.1-1.2,4.7-1.9,7.8-1.9c3.1,0,5.8,0.6,7.9,1.9
		c2.1,1.2,3.9,2.8,5.2,4.6c1.3,1.9,2.4,3.9,3.3,6.1c0.9,2.2,2,5,3.4,8.7l29.3,72.2c2.3,5.5,3.4,9.5,3.4,11.9c0,2.6-1.1,5-3.2,7.2
		c-2.2,2.2-4.8,3.2-7.8,3.2c-1.8,0-3.3-0.3-4.6-0.9c-1.3-0.6-2.3-1.5-3.2-2.6c-0.8-1.1-1.9-2.8-2.8-5
		C213.3,224.3,212.5,222.4,211.7,220.6z M166.9,189.5h33.5l-16.9-46.2L166.9,189.5z"/>
</g>
</svg>
