<?xml version="1.0" encoding="utf-8"?>
<!-- Generator: Adobe Illustrator 16.0.4, SVG Export Plug-In . SVG Version: 6.00 Build 0)  -->
<!DOCTYPE svg PUBLIC "-//W3C//DTD SVG 1.1//EN" "http://www.w3.org/Graphics/SVG/1.1/DTD/svg11.dtd">
<svg version="1.1" id="Layer_1" xmlns="http://www.w3.org/2000/svg" xmlns:xlink="http://www.w3.org/1999/xlink" x="0px" y="0px"
	 width="487.17px" height="488.17px" viewBox="110.333 50.243 487.17 488.17" enable-background="new 110.333 50.243 487.17 488.17"
	 xml:space="preserve">
<g id="Layer_1_1_">
</g>
<g opacity="0.6">
	<path fill="#FFFFFF" d="M541.786,537.299H295.936c-30.722,0-55.717-24.994-55.717-55.717V105.96
		c0-30.722,24.995-55.717,55.717-55.717h245.851c30.723,0,55.717,24.995,55.717,55.717v375.622
		C597.503,512.304,572.509,537.299,541.786,537.299z M295.936,90.243c-8.667,0-15.717,7.051-15.717,15.717v375.622
		c0,8.666,7.05,15.717,15.717,15.717h245.851c8.666,0,15.717-7.051,15.717-15.717V105.96c0-8.666-7.051-15.717-15.717-15.717
		H295.936z"/>
</g>
<g>
	<path fill="#FFFFFF" d="M541.672,538.413H166.05c-30.722,0-55.717-24.994-55.717-55.717V236.845
		c0-30.722,24.995-55.717,55.717-55.717h375.622c30.723,0,55.717,24.995,55.717,55.717v245.851
		C597.389,513.419,572.395,538.413,541.672,538.413z M166.05,221.129c-8.666,0-15.717,7.051-15.717,15.717v245.851
		c0,8.666,7.051,15.717,15.717,15.717h375.622c8.666,0,15.717-7.051,15.717-15.717V236.845c0-8.666-7.051-15.717-15.717-15.717
		H166.05z"/>
</g>
</svg>
