<?xml version="1.0" encoding="utf-8"?>
<!-- Generator: Adobe Illustrator 16.0.4, SVG Export Plug-In . SVG Version: 6.00 Build 0)  -->
<!DOCTYPE svg PUBLIC "-//W3C//DTD SVG 1.1//EN" "http://www.w3.org/Graphics/SVG/1.1/DTD/svg11.dtd">
<svg version="1.1" id="Layer_1" xmlns="http://www.w3.org/2000/svg" xmlns:xlink="http://www.w3.org/1999/xlink" x="0px" y="0px"
	 width="31px" height="31px" viewBox="405.445 282.14 31 31" enable-background="new 405.445 282.14 31 31" xml:space="preserve">
<g id="Layer_1_1_">
</g>
<path fill="#FFFFFF" d="M430.41,300.512c-0.917-0.531-1.963-0.813-3.022-0.813c-1.761,0-3.416,0.784-4.553,2.087l-3.776-2.187
	c0.451-1.3,0.429-2.687-0.001-3.94l3.779-2.177c0.428,0.495,0.938,0.932,1.535,1.277c0.92,0.533,1.966,0.814,3.025,0.814
	c2.151,0,4.157-1.156,5.234-3.017c1.669-2.885,0.681-6.59-2.203-8.26c-0.921-0.533-1.967-0.813-3.024-0.813
	c-2.152,0-4.158,1.157-5.235,3.018c-0.911,1.574-1.025,3.391-0.476,4.99l-3.78,2.177c-0.428-0.495-0.938-0.932-1.536-1.277
	c-0.921-0.533-1.967-0.814-3.025-0.814c-2.152,0-4.158,1.157-5.235,3.018c-0.809,1.397-1.025,3.026-0.608,4.586
	c0.416,1.561,1.416,2.865,2.814,3.674c0.92,0.532,1.966,0.812,3.024,0.812c1.762,0,3.416-0.784,4.552-2.085l3.777,2.185
	c-0.928,2.681,0.139,5.735,2.683,7.209c0.92,0.531,1.966,0.812,3.024,0.812c2.151,0,4.157-1.155,5.234-3.017
	c0.809-1.397,1.024-3.026,0.608-4.586C432.808,302.626,431.809,301.321,430.41,300.512z M424.156,287.651
	c0.694-1.2,1.953-1.871,3.247-1.871c0.637,0,1.281,0.162,1.873,0.504c1.791,1.037,2.403,3.329,1.367,5.121
	c-0.695,1.201-1.954,1.872-3.247,1.872c-0.638,0-1.282-0.163-1.874-0.505C423.733,291.735,423.119,289.443,424.156,287.651z
	 M413.346,301.371c-0.637,0-1.283-0.162-1.874-0.504c-1.793-1.037-2.404-3.33-1.368-5.121c0.695-1.201,1.954-1.872,3.248-1.872
	c0.637,0,1.283,0.163,1.874,0.505c1.792,1.037,2.403,3.33,1.367,5.121C415.898,300.702,414.64,301.371,413.346,301.371z
	 M430.627,307.622c-0.694,1.199-1.952,1.87-3.245,1.87c-0.637,0-1.282-0.163-1.874-0.505c-1.792-1.037-2.404-3.327-1.368-5.119
	c0.695-1.2,1.954-1.871,3.248-1.871c0.637,0,1.282,0.162,1.873,0.505C431.053,303.537,431.665,305.83,430.627,307.622z"/>
</svg>
