<?xml version="1.0" encoding="utf-8"?>
<!-- Generator: Adobe Illustrator 16.0.4, SVG Export Plug-In . SVG Version: 6.00 Build 0)  -->
<!DOCTYPE svg PUBLIC "-//W3C//DTD SVG 1.1//EN" "http://www.w3.org/Graphics/SVG/1.1/DTD/svg11.dtd">
<svg version="1.1" id="Layer_1" xmlns="http://www.w3.org/2000/svg" xmlns:xlink="http://www.w3.org/1999/xlink" x="0px" y="0px"
	 width="31px" height="31px" viewBox="405.445 282.14 31 31" enable-background="new 405.445 282.14 31 31" xml:space="preserve">
<g id="Layer_1_1_">
</g>
<path fill="#FFFFFF" d="M434.225,289.404c-0.979,0.434-2.029,0.726-3.131,0.858c1.126-0.674,1.989-1.743,2.396-3.015
	c-1.053,0.624-2.221,1.077-3.46,1.321c-0.995-1.058-2.409-1.72-3.976-1.72c-3.011,0-5.45,2.439-5.45,5.449
	c0,0.427,0.047,0.842,0.141,1.242c-4.529-0.228-8.543-2.396-11.231-5.694c-0.47,0.805-0.737,1.742-0.737,2.74
	c0,1.89,0.961,3.558,2.423,4.536c-0.894-0.028-1.733-0.274-2.468-0.682c-0.001,0.022-0.001,0.046-0.001,0.068
	c0,2.641,1.879,4.842,4.371,5.342c-0.457,0.125-0.938,0.192-1.436,0.192c-0.351,0-0.692-0.034-1.024-0.099
	c0.693,2.166,2.704,3.74,5.089,3.784c-1.865,1.461-4.215,2.334-6.768,2.334c-0.439,0-0.873-0.027-1.299-0.077
	c2.411,1.546,5.274,2.447,8.352,2.447c10.021,0,15.503-8.303,15.503-15.502c0-0.236-0.005-0.472-0.017-0.705
	C432.57,291.456,433.494,290.496,434.225,289.404z"/>
</svg>
