<?xml version="1.0" encoding="utf-8"?>
<!-- Generator: Adobe Illustrator 16.0.4, SVG Export Plug-In . SVG Version: 6.00 Build 0)  -->
<!DOCTYPE svg PUBLIC "-//W3C//DTD SVG 1.1//EN" "http://www.w3.org/Graphics/SVG/1.1/DTD/svg11.dtd">
<svg version="1.1" id="Layer_1" xmlns="http://www.w3.org/2000/svg" xmlns:xlink="http://www.w3.org/1999/xlink" x="0px" y="0px"
	 width="487.17px" height="511.585px" viewBox="0 -23.415 487.17 511.585" enable-background="new 0 -23.415 487.17 511.585"
	 xml:space="preserve">
<g id="Layer_1_1_">
</g>
<g>
	<path fill="#FFFFFF" d="M282.919,279.685h-78.667c-8.648,0-15.829-6.676-16.457-15.301L168.129-5.717
		c-0.333-4.572,1.251-9.077,4.373-12.434c3.122-3.357,7.499-5.264,12.083-5.264h118c4.584,0,8.962,1.907,12.083,5.264
		c3.122,3.357,4.706,7.862,4.373,12.434l-19.666,270.101C298.747,273.009,291.567,279.685,282.919,279.685z M219.594,246.685h47.982
		l17.264-237.1h-82.51L219.594,246.685z"/>
</g>
<g>
	<path fill="#FFFFFF" d="M243.585,487.085c-43.285,0-78.5-35.215-78.5-78.5s35.215-78.5,78.5-78.5s78.5,35.215,78.5,78.5
		S286.87,487.085,243.585,487.085z M243.585,363.085c-25.089,0-45.5,20.411-45.5,45.5s20.411,45.5,45.5,45.5s45.5-20.411,45.5-45.5
		S268.674,363.085,243.585,363.085z"/>
</g>
</svg>
